<?xml version="1.0" encoding="UTF-8" standalone="no"?>
<!-- Created with Inkscape (http://www.inkscape.org/) -->

<svg
   xmlns:dc="http://purl.org/dc/elements/1.1/"
   xmlns:cc="http://creativecommons.org/ns#"
   xmlns:rdf="http://www.w3.org/1999/02/22-rdf-syntax-ns#"
   xmlns:svg="http://www.w3.org/2000/svg"
   xmlns="http://www.w3.org/2000/svg"
   xmlns:sodipodi="http://sodipodi.sourceforge.net/DTD/sodipodi-0.dtd"
   xmlns:inkscape="http://www.inkscape.org/namespaces/inkscape"
   width="100"
   height="100"
   viewBox="0 0 26.458333 26.458334"
   version="1.1"
   id="svg8"
   inkscape:version="0.92.2 5c3e80d, 2017-08-06"
   sodipodi:docname="cloudy.svg"
   inkscape:export-filename="/home/victor/Documents/Apps/AstralMod/plugins/images/cloudy.png"
   inkscape:export-xdpi="144"
   inkscape:export-ydpi="144">
  <defs
     id="defs2" />
  <sodipodi:namedview
     id="base"
     pagecolor="#ffffff"
     bordercolor="#666666"
     borderopacity="1.0"
     inkscape:pageopacity="0.0"
     inkscape:pageshadow="2"
     inkscape:zoom="5.6"
     inkscape:cx="54.537561"
     inkscape:cy="53.482832"
     inkscape:document-units="mm"
     inkscape:current-layer="layer1"
     showgrid="true"
     units="px"
     inkscape:window-width="1680"
     inkscape:window-height="1016"
     inkscape:window-x="0"
     inkscape:window-y="0"
     inkscape:window-maximized="1">
    <inkscape:grid
       type="xygrid"
       id="grid815" />
  </sodipodi:namedview>
  <metadata
     id="metadata5">
    <rdf:RDF>
      <cc:Work
         rdf:about="">
        <dc:format>image/svg+xml</dc:format>
        <dc:type
           rdf:resource="http://purl.org/dc/dcmitype/StillImage" />
        <dc:title></dc:title>
      </cc:Work>
    </rdf:RDF>
  </metadata>
  <g
     inkscape:label="Layer 1"
     inkscape:groupmode="layer"
     id="layer1"
     transform="translate(0,-270.54165)">
    <path
       style="fill:#646464;fill-opacity:1;stroke:none;stroke-width:1.32291663;stroke-linecap:round;stroke-linejoin:round;stroke-miterlimit:4;stroke-dasharray:none;stroke-opacity:1"
       d="m 14.552083,274.5104 a 6.614583,6.614583 0 0 0 -5.6415158,3.17707 5.2916663,5.2916663 0 0 0 -2.2959838,-0.53124 5.2916663,5.2916663 0 0 0 -5.2916666,5.29167 5.2916663,5.2916663 0 0 0 5.2916666,5.29167 h 1.5037843 c 0.292998,-2.42561 2.3757383,-4.32894 4.8756713,-4.32894 a 1.3230489,1.3230489 0 0 1 0.0041,0 c 0.406952,10e-4 0.781714,0.17169 1.173572,0.27182 1.089428,-1.21688 2.542115,-2.06661 4.206978,-2.06861 a 1.3230489,1.3230489 0 0 1 0.45527,0.0822 c 2.228202,0.18328 4.090946,1.62263 4.886523,3.68349 0.317985,0.0721 0.622371,0.18148 0.908988,0.32091 a 3.9687499,3.9687499 0 0 0 0.505913,-1.92959 3.9687499,3.9687499 0 0 0 -3.96875,-3.96875 3.9687499,3.9687499 0 0 0 -0.139527,0.005 6.614583,6.614583 0 0 0 -6.475057,-5.29632 z m 3.823023,9.75186 c -1.102179,0.004 -2.120367,0.57778 -2.693376,1.5198 a 1.3230489,1.3230489 0 0 1 -1.706873,0.50178 c -0.30618,-0.14862 -0.642036,-0.22741 -0.982368,-0.22841 -1.063939,8.7e-4 -1.935793,0.70767 -2.189014,1.68414 h 10.363192 a 3.9687499,3.9687499 0 0 0 0.880049,-0.10232 1.3230489,1.3230489 0 0 1 -0.568441,-0.84181 c -0.301317,-1.48159 -1.587632,-2.53118 -3.099552,-2.53318 a 1.3230489,1.3230489 0 0 1 -0.0036,0 z"
       id="path858"
       inkscape:connector-curvature="0" />
    <path
       inkscape:connector-curvature="0"
       style="fill:#646464;fill-opacity:1;stroke:none;stroke-width:1.32291663;stroke-linecap:round;stroke-linejoin:round;stroke-miterlimit:4;stroke-dasharray:none;stroke-opacity:1"
       d="m 18.380387,282.93779 a 4.4886217,4.4886217 0 0 0 -3.828304,2.15595 3.5908974,3.5908974 0 0 0 -1.558044,-0.3605 3.5908974,3.5908974 0 0 0 -3.5908959,3.5909 3.5908974,3.5908974 0 0 0 3.5908959,3.5909 h 9.874969 a 2.6931731,2.6931731 0 0 0 2.693174,-2.69317 2.6931731,2.6931731 0 0 0 -2.693174,-2.69317 2.6931731,2.6931731 0 0 0 -0.09468,0.004 4.4886217,4.4886217 0 0 0 -4.39394,-3.59406 z"
       id="path858-6" />
  </g>
</svg>
