<?xml version="1.0" encoding="UTF-8" standalone="no"?>
<!-- Created with Inkscape (http://www.inkscape.org/) -->

<svg
   xmlns:dc="http://purl.org/dc/elements/1.1/"
   xmlns:cc="http://creativecommons.org/ns#"
   xmlns:rdf="http://www.w3.org/1999/02/22-rdf-syntax-ns#"
   xmlns:svg="http://www.w3.org/2000/svg"
   xmlns="http://www.w3.org/2000/svg"
   xmlns:sodipodi="http://sodipodi.sourceforge.net/DTD/sodipodi-0.dtd"
   xmlns:inkscape="http://www.inkscape.org/namespaces/inkscape"
   width="100"
   height="100"
   viewBox="0 0 26.458333 26.458334"
   version="1.1"
   id="svg8"
   inkscape:version="0.92.2 5c3e80d, 2017-08-06"
   sodipodi:docname="snow.svg"
   inkscape:export-filename="/home/victor/Documents/Apps/AstralMod/plugins/images/snow.png"
   inkscape:export-xdpi="144"
   inkscape:export-ydpi="144">
  <defs
     id="defs2" />
  <sodipodi:namedview
     id="base"
     pagecolor="#ffffff"
     bordercolor="#666666"
     borderopacity="1.0"
     inkscape:pageopacity="0.0"
     inkscape:pageshadow="2"
     inkscape:zoom="5.6"
     inkscape:cx="50.343924"
     inkscape:cy="43.459352"
     inkscape:document-units="mm"
     inkscape:current-layer="layer1"
     showgrid="true"
     units="px"
     inkscape:window-width="1680"
     inkscape:window-height="1016"
     inkscape:window-x="0"
     inkscape:window-y="0"
     inkscape:window-maximized="1">
    <inkscape:grid
       type="xygrid"
       id="grid815" />
  </sodipodi:namedview>
  <metadata
     id="metadata5">
    <rdf:RDF>
      <cc:Work
         rdf:about="">
        <dc:format>image/svg+xml</dc:format>
        <dc:type
           rdf:resource="http://purl.org/dc/dcmitype/StillImage" />
        <dc:title></dc:title>
      </cc:Work>
    </rdf:RDF>
  </metadata>
  <g
     inkscape:label="Layer 1"
     inkscape:groupmode="layer"
     id="layer1"
     transform="translate(0,-270.54165)">
    <path
       style="fill:#646464;fill-opacity:1;stroke:none;stroke-width:1.32291663;stroke-linecap:round;stroke-linejoin:round;stroke-miterlimit:4;stroke-dasharray:none;stroke-opacity:1"
       d="m 14.552083,271.86457 a 6.614583,6.614583 0 0 0 -5.6415158,3.17706 5.2916663,5.2916663 0 0 0 -2.2959838,-0.53123 5.2916663,5.2916663 0 0 0 -5.2916666,5.29167 5.2916663,5.2916663 0 0 0 5.2916666,5.29166 H 21.166667 a 3.9687499,3.9687499 0 0 0 3.96875,-3.96875 3.9687499,3.9687499 0 0 0 -3.96875,-3.96875 3.9687499,3.9687499 0 0 0 -0.139527,0.005 6.614583,6.614583 0 0 0 -6.475057,-5.29631 z"
       id="path858"
       inkscape:connector-curvature="0" />
    <path
       inkscape:connector-curvature="0"
       style="fill:#646464;fill-opacity:1;stroke:none;stroke-width:0.26499999;stroke-linecap:round;stroke-linejoin:round;stroke-miterlimit:4;stroke-dasharray:none;stroke-opacity:1"
       d="m 18.25625,286.41665 v 1.05833 h -1.058333 v 0.52917 h 1.058333 v 1.05833 h 0.529167 v -1.05833 h 1.058333 v -0.52917 h -1.058333 v -1.05833 z"
       id="rect9766-2" />
    <path
       inkscape:connector-curvature="0"
       style="fill:#646464;fill-opacity:1;stroke:none;stroke-width:0.26499999;stroke-linecap:round;stroke-linejoin:round;stroke-miterlimit:4;stroke-dasharray:none;stroke-opacity:1"
       d="m 12.964583,286.41665 v 1.05833 H 11.90625 v 0.52917 h 1.058333 v 1.05833 h 0.529167 v -1.05833 h 1.058333 v -0.52917 H 13.49375 v -1.05833 z"
       id="rect9766-2-6" />
    <path
       inkscape:connector-curvature="0"
       style="fill:#646464;fill-opacity:1;stroke:none;stroke-width:0.26499999;stroke-linecap:round;stroke-linejoin:round;stroke-miterlimit:4;stroke-dasharray:none;stroke-opacity:1"
       d="m 7.6729166,286.41665 v 1.05833 h -1.058333 v 0.52917 h 1.058333 v 1.05833 h 0.529167 v -1.05833 h 1.058333 v -0.52917 h -1.058333 v -1.05833 z"
       id="rect9766-2-64" />
    <path
       inkscape:connector-curvature="0"
       style="fill:#646464;fill-opacity:1;stroke:none;stroke-width:0.26499999;stroke-linecap:round;stroke-linejoin:round;stroke-miterlimit:4;stroke-dasharray:none;stroke-opacity:1"
       d="m 3.7041666,291.70832 v 1.05833 h -1.058333 v 0.52917 h 1.058333 v 1.05833 h 0.529167 v -1.05833 h 1.058333 v -0.52917 h -1.058333 v -1.05833 z"
       id="rect9766-2-9" />
    <path
       inkscape:connector-curvature="0"
       style="fill:#646464;fill-opacity:1;stroke:none;stroke-width:0.26499999;stroke-linecap:round;stroke-linejoin:round;stroke-miterlimit:4;stroke-dasharray:none;stroke-opacity:1"
       d="m 8.9958333,291.70832 v 1.05833 h -1.058333 v 0.52917 h 1.058333 v 1.05833 h 0.529167 v -1.05833 h 1.0583327 v -0.52917 H 9.5250003 v -1.05833 z"
       id="rect9766-2-5" />
    <path
       inkscape:connector-curvature="0"
       style="fill:#646464;fill-opacity:1;stroke:none;stroke-width:0.26499999;stroke-linecap:round;stroke-linejoin:round;stroke-miterlimit:4;stroke-dasharray:none;stroke-opacity:1"
       d="m 14.2875,291.70832 v 1.05833 h -1.058333 v 0.52917 H 14.2875 v 1.05833 h 0.529167 v -1.05833 H 15.875 v -0.52917 h -1.058333 v -1.05833 z"
       id="rect9766-2-0" />
  </g>
</svg>
