<?xml version="1.0" encoding="UTF-8" standalone="no"?>
<!-- Created with Inkscape (http://www.inkscape.org/) -->

<svg
   xmlns:dc="http://purl.org/dc/elements/1.1/"
   xmlns:cc="http://creativecommons.org/ns#"
   xmlns:rdf="http://www.w3.org/1999/02/22-rdf-syntax-ns#"
   xmlns:svg="http://www.w3.org/2000/svg"
   xmlns="http://www.w3.org/2000/svg"
   xmlns:sodipodi="http://sodipodi.sourceforge.net/DTD/sodipodi-0.dtd"
   xmlns:inkscape="http://www.inkscape.org/namespaces/inkscape"
   width="100"
   height="100"
   viewBox="0 0 26.458333 26.458334"
   version="1.1"
   id="svg8"
   inkscape:version="0.92.2 2405546, 2018-03-11"
   sodipodi:docname="unavail.svg"
   inkscape:export-filename="/home/victor/Documents/Apps/AstralMod/plugins/images/unavail.png"
   inkscape:export-xdpi="144"
   inkscape:export-ydpi="144">
  <defs
     id="defs2" />
  <sodipodi:namedview
     id="base"
     pagecolor="#ffffff"
     bordercolor="#666666"
     borderopacity="1.0"
     inkscape:pageopacity="0"
     inkscape:pageshadow="2"
     inkscape:zoom="5.6"
     inkscape:cx="30.826322"
     inkscape:cy="51.672676"
     inkscape:document-units="mm"
     inkscape:current-layer="layer1"
     showgrid="true"
     units="px"
     inkscape:window-width="1920"
     inkscape:window-height="1046"
     inkscape:window-x="0"
     inkscape:window-y="0"
     inkscape:window-maximized="1">
    <inkscape:grid
       type="xygrid"
       id="grid815" />
  </sodipodi:namedview>
  <metadata
     id="metadata5">
    <rdf:RDF>
      <cc:Work
         rdf:about="">
        <dc:format>image/svg+xml</dc:format>
        <dc:type
           rdf:resource="http://purl.org/dc/dcmitype/StillImage" />
        <dc:title></dc:title>
      </cc:Work>
    </rdf:RDF>
  </metadata>
  <g
     inkscape:label="Layer 1"
     inkscape:groupmode="layer"
     id="layer1"
     transform="translate(0,-270.54165)">
    <path
       style="color:#000000;font-style:normal;font-variant:normal;font-weight:normal;font-stretch:normal;font-size:medium;line-height:normal;font-family:sans-serif;font-variant-ligatures:normal;font-variant-position:normal;font-variant-caps:normal;font-variant-numeric:normal;font-variant-alternates:normal;font-feature-settings:normal;text-indent:0;text-align:start;text-decoration:none;text-decoration-line:none;text-decoration-style:solid;text-decoration-color:#000000;letter-spacing:normal;word-spacing:normal;text-transform:none;writing-mode:lr-tb;direction:ltr;text-orientation:mixed;dominant-baseline:auto;baseline-shift:baseline;text-anchor:start;white-space:normal;shape-padding:0;clip-rule:nonzero;display:inline;overflow:visible;visibility:visible;opacity:1;isolation:auto;mix-blend-mode:normal;color-interpolation:sRGB;color-interpolation-filters:linearRGB;solid-color:#000000;solid-opacity:1;vector-effect:none;fill:#ffffff;fill-opacity:1;fill-rule:nonzero;stroke:none;stroke-width:5;stroke-linecap:round;stroke-linejoin:round;stroke-miterlimit:4;stroke-dasharray:none;stroke-dashoffset:0;stroke-opacity:1;paint-order:normal;color-rendering:auto;image-rendering:auto;shape-rendering:auto;text-rendering:auto;enable-background:accumulate"
       d="M 49.998047 7.4980469 C 26.555556 7.4980469 7.5 26.559471 7.5 50.001953 C 7.5 60.824282 11.567048 70.707761 18.246094 78.216797 L 18.232422 78.230469 L 18.435547 78.433594 C 19.424956 79.531023 20.468977 80.575044 21.566406 81.564453 L 21.769531 81.767578 L 21.783203 81.753906 C 29.292238 88.432951 39.175732 92.500017 49.998047 92.5 C 73.440536 92.5 92.501953 73.444473 92.501953 50.001953 C 92.501953 39.179287 88.433083 29.295973 81.751953 21.785156 L 81.769531 21.767578 L 81.525391 21.523438 C 80.560792 20.456533 79.543467 19.439207 78.476562 18.474609 L 78.232422 18.230469 L 78.214844 18.248047 C 70.704026 11.566919 60.820717 7.4980469 49.998047 7.4980469 z M 49.998047 12.501953 C 59.466071 12.501953 68.096224 16.003853 74.689453 21.773438 L 21.767578 74.695312 C 15.997991 68.102082 12.498047 59.469988 12.498047 50.001953 C 12.498047 29.261682 29.257756 12.501953 49.998047 12.501953 z M 78.226562 25.310547 C 83.99615 31.903773 87.498047 40.533936 87.498047 50.001953 C 87.498047 70.742262 70.738333 87.501953 49.998047 87.501953 C 40.53002 87.501953 31.897916 84.00201 25.304688 78.232422 L 78.226562 25.310547 z "
       transform="matrix(0.26458333,0,0,0.26458333,0,270.54165)"
       id="path991" />
  </g>
</svg>
